<svg width="47" height="47" viewBox="0 0 47 47" fill="none" xmlns="http://www.w3.org/2000/svg">
<path d="M19.5834 37.2083C19.1258 37.2092 18.6824 37.0499 18.33 36.7579C18.1317 36.5935 17.9678 36.3916 17.8477 36.1638C17.7275 35.9359 17.6535 35.6866 17.6299 35.4301C17.6062 35.1736 17.6334 34.915 17.7099 34.669C17.7863 34.423 17.9105 34.1946 18.0754 33.9967L26.8488 23.5L18.3888 12.9837C18.2261 12.7834 18.1046 12.5529 18.0313 12.3055C17.958 12.0581 17.9343 11.7987 17.9616 11.5421C17.9889 11.2855 18.0667 11.0368 18.1904 10.8103C18.3141 10.5839 18.4814 10.3841 18.6825 10.2225C18.8851 10.0442 19.1224 9.90974 19.3795 9.82751C19.6365 9.74528 19.9078 9.71708 20.1763 9.74466C20.4448 9.77224 20.7046 9.85502 20.9396 9.9878C21.1746 10.1206 21.3796 10.3005 21.5417 10.5162L31.0004 22.2662C31.2885 22.6167 31.4459 23.0562 31.4459 23.5098C31.4459 23.9634 31.2885 24.4029 31.0004 24.7533L21.2088 36.5033C21.0123 36.7403 20.7628 36.9277 20.4804 37.0502C20.1979 37.1726 19.8906 37.2268 19.5834 37.2083Z" fill="white"/>
</svg>
