<svg width="45" height="44" viewBox="0 0 45 44" fill="none" xmlns="http://www.w3.org/2000/svg">
<g clip-path="url(#clip0)">
<path d="M38.75 26.8889H13.75L11.25 12.2222H41.25L38.75 26.8889Z" fill="#CCD6DD"/>
<path d="M45.23 32H17.73C16.3625 32 15.25 30.911 15.25 29.5751C15.25 28.2392 16.3825 27.1111 17.75 27.1111L17.7587 27.1099L17.7687 27.1111H42.75C43.0459 27.111 43.3321 27.0082 43.5578 26.8211C43.7835 26.634 43.934 26.3747 43.9825 26.0893L46.4825 11.4227C46.5129 11.2476 46.5038 11.0681 46.4559 10.8968C46.4079 10.7254 46.3222 10.5665 46.2048 10.4309C46.0874 10.2954 45.9411 10.1866 45.7762 10.1122C45.6112 10.0377 45.4316 9.99945 45.25 10H16.2712L14.9712 2.46378C14.9215 2.19103 14.7773 1.94332 14.5629 1.76217C14.3485 1.58103 14.077 1.47748 13.7937 1.46889C13.7737 1.46522 13.76 1.44444 13.74 1.44444H7.75C7.41848 1.44444 7.10054 1.57321 6.86612 1.80242C6.6317 2.03163 6.5 2.34251 6.5 2.66667C6.5 2.99082 6.6317 3.3017 6.86612 3.53091C7.10054 3.76012 7.41848 3.88889 7.75 3.88889H12.6825L16.3112 24.9307C14.2587 25.5332 12.75 27.3751 12.75 29.5751C12.7517 30.866 13.2769 32.1036 14.2104 33.0165C15.144 33.9293 16.4097 34.4428 17.73 34.4444H45.23C45.5615 34.4444 45.8795 34.3157 46.1139 34.0865C46.3483 33.8573 46.48 33.5464 46.48 33.2222C46.48 32.8981 46.3483 32.5872 46.1139 32.358C45.8795 32.1288 45.5615 32 45.23 32ZM42.525 19.7778H38.3912L38.7325 17.3333H42.94L42.525 19.7778ZM35.8675 19.7778H31.5V17.3333H36.2087L35.8675 19.7778ZM29 19.7778H24.6325L24.2912 17.3333H29V19.7778ZM22.11 19.7778H17.9762L17.56 17.3333H21.7687L22.11 19.7778ZM18.8087 24.6667L18.3925 22.2222H22.4512L22.7925 24.6667H18.8087ZM25.3162 24.6667L24.975 22.2222H29V24.6667H25.3162ZM31.5 24.6667V22.2222H35.525L35.1837 24.6667H31.5ZM37.7087 24.6667L38.05 22.2222H42.1087L41.6925 24.6667H37.7087ZM43.7737 12.4444L43.3575 14.8889H39.075L39.4162 12.4444H43.7737ZM36.8925 12.4444L36.5512 14.8889H31.5V12.4444H36.8925ZM29 12.4444V14.8889H23.9487L23.6075 12.4444H29ZM21.0837 12.4444L21.425 14.8889H17.1412L16.725 12.4444H21.0837Z" fill="#66757F"/>
<path d="M17.5 41.5556C19.5711 41.5556 21.25 39.9139 21.25 37.8889C21.25 35.8639 19.5711 34.2222 17.5 34.2222C15.4289 34.2222 13.75 35.8639 13.75 37.8889C13.75 39.9139 15.4289 41.5556 17.5 41.5556Z" fill="#E1E8ED"/>
<path d="M17.5 42.7778C14.7425 42.7778 12.5 40.5851 12.5 37.8889C12.5 35.1927 14.7425 33 17.5 33C20.2575 33 22.5 35.1927 22.5 37.8889C22.5 40.5851 20.2575 42.7778 17.5 42.7778ZM17.5 35.4444C16.1212 35.4444 15 36.5408 15 37.8889C15 39.237 16.1212 40.3333 17.5 40.3333C18.8787 40.3333 20 39.237 20 37.8889C20 36.5408 18.8787 35.4444 17.5 35.4444Z" fill="#292F33"/>
<path d="M35 41.5556C37.0711 41.5556 38.75 39.9139 38.75 37.8889C38.75 35.8639 37.0711 34.2222 35 34.2222C32.9289 34.2222 31.25 35.8639 31.25 37.8889C31.25 39.9139 32.9289 41.5556 35 41.5556Z" fill="#E1E8ED"/>
<path d="M35 42.7778C32.2425 42.7778 30 40.5851 30 37.8889C30 35.1927 32.2425 33 35 33C37.7575 33 40 35.1927 40 37.8889C40 40.5851 37.7575 42.7778 35 42.7778ZM35 35.4444C33.6212 35.4444 32.5 36.5408 32.5 37.8889C32.5 39.237 33.6212 40.3333 35 40.3333C36.3787 40.3333 37.5 39.237 37.5 37.8889C37.5 36.5408 36.3787 35.4444 35 35.4444Z" fill="#292F33"/>
</g>
<defs>
<clipPath id="clip0">
<rect width="45" height="44" fill="white"/>
</clipPath>
</defs>
</svg>
