<svg width="44" height="45" viewBox="0 0 44 45" fill="none" xmlns="http://www.w3.org/2000/svg">
<path d="M10.8226 2.64937C13.4227 1.78593 20.7969 4.84664 21.7415 5.94773C22.6799 7.0432 16.5536 7.49601 13.2275 8.00015C9.7955 8.5282 6.37244 9.1589 5.43675 8.05429C4.50175 6.96515 8.22594 3.51843 10.8226 2.64937Z" fill="#F79423"/>
<path d="M28.7183 0.729844C31.6897 -0.1575 39.6578 3.49172 40.6203 4.73484C41.5732 5.99344 34.7215 6.30703 30.9815 6.76898C27.1102 7.24289 23.2327 7.83773 22.2792 6.58477C21.3194 5.34164 25.7572 1.60805 28.7203 0.729844" fill="#F79423"/>
<path d="M11.2778 5.77054C13.0632 4.5696 20.7474 5.79796 22.0426 6.55242C23.3503 7.30054 18.3955 8.81578 15.8208 9.85078C13.1732 10.9216 10.5793 12.0959 9.27508 11.3295C7.96264 10.5841 9.49989 6.98343 11.2791 5.77054" fill="#F79423"/>
<path d="M18.4814 0.0632744C21.0808 0.301634 23.8164 4.9521 23.5627 6.0539C23.318 7.14937 18.511 5.45624 15.6805 4.71726C12.7655 3.95929 9.75841 3.28921 10.0183 2.19374C10.2692 1.08632 15.8758 -0.172272 18.4814 0.0632744Z" fill="#F79423"/>
<path d="M27.3845 5.26288C29.9935 5.4921 32.7263 10.1461 32.472 11.2444C32.2183 12.3462 27.414 10.6495 24.5836 9.91335C21.6768 9.15889 18.6608 8.47967 18.9206 7.38139C19.1668 6.28311 24.785 5.03085 27.3845 5.26499" fill="#F79423"/>
<path d="M3.2395 36.3066C3.2395 42.9377 12.5056 44.8692 22.418 44.8692C32.3297 44.8692 41.5993 42.9377 41.5993 36.3066C41.5993 29.688 32.3304 9.91687 22.418 9.91687C12.5056 9.91687 3.2395 29.6887 3.2395 36.3066Z" fill="#F79423"/>
<path d="M28.367 10.7318C28.3672 11.0616 28.3038 11.3882 28.1805 11.6929C28.0572 11.9976 27.8763 12.2745 27.6483 12.5077C27.4203 12.7409 27.1496 12.9258 26.8517 13.0519C26.5537 13.178 26.2344 13.2428 25.9119 13.2427H18.9235C18.2724 13.2427 17.6479 12.9781 17.1875 12.5073C16.7271 12.0364 16.4684 11.3977 16.4684 10.7318C16.4684 10.0659 16.7271 9.42724 17.1875 8.95636C17.6479 8.48548 18.2724 8.22095 18.9235 8.22095H25.9113C26.2337 8.22086 26.553 8.28573 26.851 8.41187C27.1489 8.53801 27.4196 8.72295 27.6477 8.95611C27.8757 9.18928 28.0566 9.4661 28.1801 9.77078C28.3035 10.0755 28.367 10.402 28.367 10.7318Z" fill="#845939"/>
<path d="M26.9418 28.8042C26.1807 27.9738 25.1302 27.4184 24.1326 26.9571C23.0938 26.4734 21.5889 26.0789 20.9275 25.0376C20.3727 24.1657 21.1372 23.2509 21.9161 22.9852C23.1701 22.5541 24.717 23.0731 25.8177 23.7066C26.3663 24.0202 26.9452 23.7129 27.1542 23.1511C27.3845 22.5295 27.6148 21.9073 27.8417 21.2864C27.9806 20.9088 27.7564 20.4258 27.4264 20.2359C26.4261 19.6685 25.3839 19.3577 24.2832 19.2101V17.3088C24.2832 16.8019 23.87 16.3793 23.3743 16.3793H21.6597C21.1668 16.3793 20.7508 16.8019 20.7508 17.3088V19.4323C19.0541 19.9329 17.5079 21.0502 16.9056 22.8249C16.236 24.7894 16.643 26.8235 18.0682 28.3113C18.8327 29.1115 19.8653 29.6367 20.8457 30.0917C21.9519 30.6021 23.3124 30.9699 24.0268 32.0597C24.7913 33.2248 23.8026 34.3744 22.7343 34.7041C21.3001 35.1443 19.5621 34.4841 18.3576 33.717C17.8296 33.3795 17.2157 33.7261 17.0239 34.2724L16.3598 36.1645C16.2181 36.5688 16.4539 36.9977 16.7784 37.2143C17.9149 37.9751 19.2191 38.352 20.5556 38.5095V40.5106C20.5556 40.7827 20.6532 40.9908 20.7976 41.1384C20.8065 41.1483 20.8154 41.1567 20.8209 41.1659C20.8292 41.1746 20.8382 41.1826 20.8478 41.1898C20.9921 41.341 21.1956 41.4401 21.4617 41.4401H23.2059C23.446 41.4379 23.6756 41.3391 23.8452 41.1652C24.0147 40.9913 24.1106 40.7561 24.112 40.5106V38.3013C25.9978 37.7459 27.4553 36.4999 28.1903 34.5649C28.9438 32.5913 28.303 30.2941 26.9369 28.8035" fill="#25333A"/>
<path d="M26.9418 27.5203C26.1807 26.6934 25.1302 26.138 24.1326 25.6767C23.0938 25.193 21.5889 24.7985 20.9275 23.7544C20.3727 22.8881 21.1372 21.9705 21.9161 21.702C23.1701 21.2738 24.717 21.7898 25.8177 22.4234C26.3663 22.7405 26.9452 22.429 27.1542 21.8679C27.3845 21.2463 27.6148 20.6276 27.8417 20.006C27.9806 19.6256 27.7564 19.1426 27.4264 18.9555C26.4261 18.3853 25.3839 18.0773 24.2832 17.9269V16.0256C24.2832 15.5215 23.87 15.0989 23.3743 15.0989H21.6597C21.1668 15.0989 20.7508 15.5215 20.7508 16.0256V18.1491C19.0541 18.6504 17.5079 19.7698 16.9056 21.5445C16.236 23.509 16.643 25.5431 18.0682 27.0281C18.8327 27.8283 19.8653 28.3563 20.8457 28.8084C21.9519 29.3189 23.3124 29.6866 24.0268 30.7765C24.7913 31.9409 23.8026 33.0912 22.7343 33.423C21.3001 33.8639 19.5621 33.2037 18.3576 32.4338C17.8296 32.0984 17.2157 32.4457 17.0239 32.9892L16.3598 34.8841C16.2181 35.2849 16.4539 35.7173 16.7784 35.9339C17.9149 36.6919 19.2191 37.0716 20.5556 37.2291V39.2302C20.5556 39.4988 20.6532 39.7076 20.7976 39.858C20.8065 39.8679 20.8154 39.8763 20.8209 39.8855C20.8305 39.8926 20.8395 39.9006 20.8478 39.9094C20.9921 40.057 21.1956 40.1569 21.4617 40.1569H23.2059C23.4454 40.1547 23.6745 40.0564 23.844 39.8833C24.0134 39.7101 24.1097 39.4758 24.112 39.2309V37.0188C25.9978 36.4641 27.4553 35.2202 28.1903 33.2831C28.9438 31.3102 28.303 29.0102 26.9369 27.5196" fill="#25333A"/>
</svg>
