<svg width="44" height="44" viewBox="0 0 44 44" fill="none" xmlns="http://www.w3.org/2000/svg">
<g clip-path="url(#clip0)">
<path d="M32.9127 0H11.0852C10.1592 0.000364277 9.27117 0.368346 8.6163 1.02309C7.96142 1.67783 7.59327 2.56577 7.59272 3.49181V40.5103C7.59363 41.4362 7.9619 42.3239 8.6167 42.9786C9.27149 43.6332 10.1593 44.0013 11.0852 44.0021H32.9127C33.8387 44.0012 34.7266 43.6331 35.3817 42.9785C36.0368 42.3239 36.4056 41.4363 36.4072 40.5103V3.49731C36.4061 2.57109 36.0375 1.68315 35.3823 1.02846C34.7271 0.373779 33.8389 0.00586365 32.9127 0.0055" fill="#405866"/>
<path d="M30.6481 2.66472H13.3506C12.617 2.66472 11.9133 2.95568 11.3939 3.47379C10.8745 3.99189 10.5818 4.69485 10.58 5.42847V34.762C10.5814 35.4958 10.874 36.1989 11.3935 36.7171C11.913 37.2353 12.6168 37.5261 13.3506 37.5258H30.6481C32.1743 37.5258 33.4118 36.2814 33.4118 34.762V5.42572C33.4118 3.89947 32.1709 2.66197 30.6481 2.66197" fill="#85CFEA"/>
<path d="M21.5188 2.66477H13.3547C12.6211 2.66476 11.9174 2.95572 11.398 3.47383C10.8786 3.99194 10.5859 4.69489 10.5841 5.42852V34.7621C10.5855 35.4958 10.8781 36.199 11.3976 36.7172C11.9171 37.2354 12.621 37.5262 13.3547 37.5258H30.6522C31.2111 37.5258 31.7275 37.3546 32.162 37.0728C24.8078 27.4931 20.8711 14.6156 21.5208 2.66339" fill="#28A6DE"/>
<path d="M24.2687 40.8306C24.2687 42.0798 23.254 43.098 22.002 43.098C20.7501 43.098 19.7353 42.0805 19.7353 40.8306C19.7353 39.5808 20.7501 38.5633 22.002 38.5633C23.254 38.5633 24.2687 39.5808 24.2687 40.8306Z" fill="#CBD5DC"/>
<path d="M15.534 40.8307C15.5387 41.0512 15.4992 41.2705 15.4181 41.4756C15.3369 41.6808 15.2156 41.8676 15.0613 42.0253C14.907 42.183 14.7228 42.3083 14.5195 42.3938C14.3161 42.4794 14.0978 42.5236 13.8772 42.5237C13.6566 42.5238 13.4382 42.48 13.2347 42.3946C13.0313 42.3093 12.8469 42.1842 12.6924 42.0268C12.538 41.8693 12.4164 41.6826 12.335 41.4775C12.2536 41.2725 12.2139 41.0533 12.2182 40.8327C12.2268 40.3989 12.4051 39.9857 12.7149 39.6818C13.0246 39.3779 13.4412 39.2075 13.8751 39.2072C14.3091 39.2069 14.7258 39.3768 15.036 39.6803C15.3461 39.9838 15.5249 40.3968 15.534 40.8307Z" fill="#CBD5DC"/>
<path d="M28.4693 40.8306C28.463 41.0523 28.5011 41.273 28.5815 41.4797C28.662 41.6864 28.783 41.8749 28.9376 42.0339C29.0921 42.193 29.277 42.3194 29.4813 42.4058C29.6856 42.4921 29.9051 42.5366 30.1269 42.5366C30.3487 42.5366 30.5682 42.4921 30.7725 42.4058C30.9768 42.3194 31.1617 42.193 31.3162 42.0339C31.4708 41.8749 31.5918 41.6864 31.6723 41.4797C31.7527 41.273 31.7909 41.0523 31.7845 40.8306C31.7845 40.391 31.6098 39.9694 31.299 39.6586C30.9881 39.3477 30.5665 39.1731 30.1269 39.1731C29.6873 39.1731 29.2657 39.3477 28.9548 39.6586C28.644 39.9694 28.4693 40.391 28.4693 40.8306Z" fill="#CBD5DC"/>
</g>
<defs>
<clipPath id="clip0">
<rect width="44" height="44" fill="white"/>
</clipPath>
</defs>
</svg>
