<svg width="15" height="15" viewBox="0 0 15 15" fill="none" xmlns="http://www.w3.org/2000/svg">
<path d="M9.13598 10.0197C8.01275 10.9171 6.58856 11.3503 5.1559 11.2304C3.72324 11.1105 2.39086 10.4466 1.43241 9.37504C0.473951 8.30347 -0.0378261 6.90559 0.00218052 5.46847C0.0421872 4.03136 0.630941 2.66411 1.64753 1.64753C2.66411 0.630941 4.03136 0.0421872 5.46847 0.00218052C6.90559 -0.0378261 8.30347 0.473951 9.37504 1.43241C10.4466 2.39086 11.1105 3.72324 11.2304 5.1559C11.3503 6.58856 10.9171 8.01275 10.0197 9.13598L14.8172 13.9322C14.9346 14.0496 15.0005 14.2088 15.0005 14.3747C15.0005 14.5407 14.9346 14.6999 14.8172 14.8172C14.6999 14.9346 14.5407 15.0005 14.3747 15.0005C14.2088 15.0005 14.0496 14.9346 13.9322 14.8172L9.13723 10.0197H9.13598ZM9.99973 5.62473C9.99973 5.0502 9.88657 4.48129 9.66671 3.95049C9.44684 3.41969 9.12458 2.9374 8.71832 2.53114C8.31207 2.12488 7.82977 1.80262 7.29897 1.58276C6.76817 1.36289 6.19927 1.24973 5.62473 1.24973C5.0502 1.24973 4.48129 1.36289 3.95049 1.58276C3.41969 1.80262 2.9374 2.12488 2.53114 2.53114C2.12488 2.9374 1.80262 3.41969 1.58276 3.95049C1.36289 4.48129 1.24973 5.0502 1.24973 5.62473C1.24973 6.78505 1.71067 7.89785 2.53114 8.71832C3.35161 9.5388 4.46441 9.99973 5.62473 9.99973C6.78505 9.99973 7.89785 9.5388 8.71832 8.71832C9.5388 7.89785 9.99973 6.78505 9.99973 5.62473Z" fill="black"/>
</svg>
